<svg xmlns="http://www.w3.org/2000/svg" width="950" height="2055" viewBox="0 0 950 2055" fill="none">
  <path d="M 125 0 L 825 0 C 894.036 0 950 55.964 950 125 L 950 1930 C 950 1999.036 894.036 2055 825 2055 L 125 2055 C 55.964 2055 0 1999.036 0 1930 L 0 125 C 0 55.964 55.964 0 125 0 Z M 581.013 32.862 L 368.236 32.862 C 344.537 32.862 325.326 52.074 325.326 75.773 C 325.326 99.472 344.537 118.684 368.236 118.684 L 581.013 118.684 C 604.712 118.684 623.924 99.472 623.924 75.773 C 623.924 52.074 604.712 32.862 581.013 32.862 Z" fill="currentColor" fill-rule="evenodd"></path>
</svg>